<mxfile host="app.diagrams.net" agent="Mozilla/5.0 (Macintosh; Intel Mac OS X 10_15_7) AppleWebKit/537.36 (KHTML, like Gecko) Chrome/131.0.0.0 Safari/537.36" version="27.0.3">
  <diagram name="第 1 页" id="vDAvAMq9xSwGJKB_N2aB">
    <mxGraphModel dx="1678" dy="969" grid="1" gridSize="10" guides="1" tooltips="1" connect="1" arrows="1" fold="1" page="1" pageScale="1" pageWidth="827" pageHeight="1169" math="0" shadow="0">
      <root>
        <mxCell id="0" />
        <mxCell id="1" parent="0" />
        <mxCell id="7ib3BzU_In25O04w2GeJ-33" value="" style="group" vertex="1" connectable="0" parent="1">
          <mxGeometry x="280" y="30" width="500" height="876" as="geometry" />
        </mxCell>
        <mxCell id="7ib3BzU_In25O04w2GeJ-1" value="&lt;font style=&quot;font-size: 19px;&quot; face=&quot;Times New Roman&quot;&gt;start&lt;/font&gt;" style="strokeWidth=2;html=1;shape=mxgraph.flowchart.start_1;whiteSpace=wrap;" vertex="1" parent="7ib3BzU_In25O04w2GeJ-33">
          <mxGeometry x="70" width="100" height="60" as="geometry" />
        </mxCell>
        <mxCell id="7ib3BzU_In25O04w2GeJ-12" style="edgeStyle=orthogonalEdgeStyle;rounded=0;orthogonalLoop=1;jettySize=auto;html=1;exitX=0.5;exitY=1;exitDx=0;exitDy=0;exitPerimeter=0;entryX=0.5;entryY=0;entryDx=0;entryDy=0;" edge="1" parent="7ib3BzU_In25O04w2GeJ-33" source="7ib3BzU_In25O04w2GeJ-2" target="7ib3BzU_In25O04w2GeJ-3">
          <mxGeometry relative="1" as="geometry" />
        </mxCell>
        <mxCell id="7ib3BzU_In25O04w2GeJ-19" value="pass" style="edgeLabel;html=1;align=center;verticalAlign=middle;resizable=0;points=[];" vertex="1" connectable="0" parent="7ib3BzU_In25O04w2GeJ-12">
          <mxGeometry x="-0.3314" y="3" relative="1" as="geometry">
            <mxPoint as="offset" />
          </mxGeometry>
        </mxCell>
        <mxCell id="7ib3BzU_In25O04w2GeJ-2" value="acl 鉴权" style="strokeWidth=2;html=1;shape=mxgraph.flowchart.decision;whiteSpace=wrap;fontFamily=Times New Roman;fontSize=19;" vertex="1" parent="7ib3BzU_In25O04w2GeJ-33">
          <mxGeometry x="42.5" y="90" width="157.5" height="70" as="geometry" />
        </mxCell>
        <mxCell id="7ib3BzU_In25O04w2GeJ-3" value="get src obj meta" style="rounded=1;whiteSpace=wrap;html=1;absoluteArcSize=1;arcSize=14;strokeWidth=2;fontFamily=Times New Roman;fontSize=19;" vertex="1" parent="7ib3BzU_In25O04w2GeJ-33">
          <mxGeometry x="40" y="190" width="160" height="50" as="geometry" />
        </mxCell>
        <mxCell id="7ib3BzU_In25O04w2GeJ-4" value="validate request" style="strokeWidth=2;html=1;shape=mxgraph.flowchart.decision;whiteSpace=wrap;fontFamily=Times New Roman;fontSize=19;" vertex="1" parent="7ib3BzU_In25O04w2GeJ-33">
          <mxGeometry x="42.5" y="270" width="155" height="70" as="geometry" />
        </mxCell>
        <mxCell id="7ib3BzU_In25O04w2GeJ-6" value="put dest obj meta" style="rounded=1;whiteSpace=wrap;html=1;absoluteArcSize=1;arcSize=14;strokeWidth=2;fontFamily=Times New Roman;fontSize=19;" vertex="1" parent="7ib3BzU_In25O04w2GeJ-33">
          <mxGeometry x="41" y="680" width="160" height="50" as="geometry" />
        </mxCell>
        <mxCell id="7ib3BzU_In25O04w2GeJ-15" style="edgeStyle=orthogonalEdgeStyle;rounded=0;orthogonalLoop=1;jettySize=auto;html=1;exitX=0.5;exitY=1;exitDx=0;exitDy=0;exitPerimeter=0;" edge="1" parent="7ib3BzU_In25O04w2GeJ-33" source="7ib3BzU_In25O04w2GeJ-7" target="7ib3BzU_In25O04w2GeJ-8">
          <mxGeometry relative="1" as="geometry" />
        </mxCell>
        <mxCell id="7ib3BzU_In25O04w2GeJ-21" value="success" style="edgeLabel;html=1;align=center;verticalAlign=middle;resizable=0;points=[];" vertex="1" connectable="0" parent="7ib3BzU_In25O04w2GeJ-15">
          <mxGeometry x="-0.3887" y="2" relative="1" as="geometry">
            <mxPoint y="2" as="offset" />
          </mxGeometry>
        </mxCell>
        <mxCell id="7ib3BzU_In25O04w2GeJ-7" value="copy object" style="strokeWidth=2;html=1;shape=mxgraph.flowchart.decision;whiteSpace=wrap;fontFamily=Times New Roman;fontSize=19;" vertex="1" parent="7ib3BzU_In25O04w2GeJ-33">
          <mxGeometry x="43.75" y="370" width="155" height="70" as="geometry" />
        </mxCell>
        <mxCell id="7ib3BzU_In25O04w2GeJ-8" value="check quota" style="strokeWidth=2;html=1;shape=mxgraph.flowchart.decision;whiteSpace=wrap;fontFamily=Times New Roman;fontSize=19;" vertex="1" parent="7ib3BzU_In25O04w2GeJ-33">
          <mxGeometry x="43.5" y="470" width="155" height="70" as="geometry" />
        </mxCell>
        <mxCell id="7ib3BzU_In25O04w2GeJ-17" style="edgeStyle=orthogonalEdgeStyle;rounded=0;orthogonalLoop=1;jettySize=auto;html=1;exitX=0.5;exitY=1;exitDx=0;exitDy=0;exitPerimeter=0;entryX=0.5;entryY=0;entryDx=0;entryDy=0;" edge="1" parent="7ib3BzU_In25O04w2GeJ-33" source="7ib3BzU_In25O04w2GeJ-9" target="7ib3BzU_In25O04w2GeJ-6">
          <mxGeometry relative="1" as="geometry" />
        </mxCell>
        <mxCell id="7ib3BzU_In25O04w2GeJ-23" value="pass" style="edgeLabel;html=1;align=center;verticalAlign=middle;resizable=0;points=[];" vertex="1" connectable="0" parent="7ib3BzU_In25O04w2GeJ-17">
          <mxGeometry x="-0.2441" relative="1" as="geometry">
            <mxPoint as="offset" />
          </mxGeometry>
        </mxCell>
        <mxCell id="7ib3BzU_In25O04w2GeJ-9" value="check crc32" style="strokeWidth=2;html=1;shape=mxgraph.flowchart.decision;whiteSpace=wrap;fontFamily=Times New Roman;fontSize=19;" vertex="1" parent="7ib3BzU_In25O04w2GeJ-33">
          <mxGeometry x="43.5" y="570" width="155" height="70" as="geometry" />
        </mxCell>
        <mxCell id="7ib3BzU_In25O04w2GeJ-10" value="&lt;font style=&quot;font-size: 19px;&quot; face=&quot;Times New Roman&quot;&gt;stop&lt;/font&gt;" style="strokeWidth=2;html=1;shape=mxgraph.flowchart.terminator;whiteSpace=wrap;" vertex="1" parent="7ib3BzU_In25O04w2GeJ-33">
          <mxGeometry x="71" y="816" width="100" height="60" as="geometry" />
        </mxCell>
        <mxCell id="7ib3BzU_In25O04w2GeJ-11" style="edgeStyle=orthogonalEdgeStyle;rounded=0;orthogonalLoop=1;jettySize=auto;html=1;exitX=0.5;exitY=1;exitDx=0;exitDy=0;exitPerimeter=0;entryX=0.5;entryY=0;entryDx=0;entryDy=0;entryPerimeter=0;" edge="1" parent="7ib3BzU_In25O04w2GeJ-33" source="7ib3BzU_In25O04w2GeJ-1" target="7ib3BzU_In25O04w2GeJ-2">
          <mxGeometry relative="1" as="geometry" />
        </mxCell>
        <mxCell id="7ib3BzU_In25O04w2GeJ-13" style="edgeStyle=orthogonalEdgeStyle;rounded=0;orthogonalLoop=1;jettySize=auto;html=1;exitX=0.5;exitY=1;exitDx=0;exitDy=0;entryX=0.5;entryY=0;entryDx=0;entryDy=0;entryPerimeter=0;" edge="1" parent="7ib3BzU_In25O04w2GeJ-33" source="7ib3BzU_In25O04w2GeJ-3" target="7ib3BzU_In25O04w2GeJ-4">
          <mxGeometry relative="1" as="geometry" />
        </mxCell>
        <mxCell id="7ib3BzU_In25O04w2GeJ-14" style="edgeStyle=orthogonalEdgeStyle;rounded=0;orthogonalLoop=1;jettySize=auto;html=1;exitX=0.5;exitY=1;exitDx=0;exitDy=0;exitPerimeter=0;entryX=0.5;entryY=0;entryDx=0;entryDy=0;entryPerimeter=0;" edge="1" parent="7ib3BzU_In25O04w2GeJ-33" source="7ib3BzU_In25O04w2GeJ-4" target="7ib3BzU_In25O04w2GeJ-7">
          <mxGeometry relative="1" as="geometry" />
        </mxCell>
        <mxCell id="7ib3BzU_In25O04w2GeJ-20" value="y" style="edgeLabel;html=1;align=center;verticalAlign=middle;resizable=0;points=[];" vertex="1" connectable="0" parent="7ib3BzU_In25O04w2GeJ-14">
          <mxGeometry x="-0.2495" y="1" relative="1" as="geometry">
            <mxPoint as="offset" />
          </mxGeometry>
        </mxCell>
        <mxCell id="7ib3BzU_In25O04w2GeJ-16" style="edgeStyle=orthogonalEdgeStyle;rounded=0;orthogonalLoop=1;jettySize=auto;html=1;exitX=0.5;exitY=1;exitDx=0;exitDy=0;exitPerimeter=0;entryX=0.5;entryY=0;entryDx=0;entryDy=0;entryPerimeter=0;" edge="1" parent="7ib3BzU_In25O04w2GeJ-33" source="7ib3BzU_In25O04w2GeJ-8" target="7ib3BzU_In25O04w2GeJ-9">
          <mxGeometry relative="1" as="geometry" />
        </mxCell>
        <mxCell id="7ib3BzU_In25O04w2GeJ-22" value="pass" style="edgeLabel;html=1;align=center;verticalAlign=middle;resizable=0;points=[];" vertex="1" connectable="0" parent="7ib3BzU_In25O04w2GeJ-16">
          <mxGeometry x="0.0078" y="2" relative="1" as="geometry">
            <mxPoint as="offset" />
          </mxGeometry>
        </mxCell>
        <mxCell id="7ib3BzU_In25O04w2GeJ-18" style="edgeStyle=orthogonalEdgeStyle;rounded=0;orthogonalLoop=1;jettySize=auto;html=1;exitX=0.5;exitY=1;exitDx=0;exitDy=0;entryX=0.5;entryY=0;entryDx=0;entryDy=0;entryPerimeter=0;" edge="1" parent="7ib3BzU_In25O04w2GeJ-33" source="7ib3BzU_In25O04w2GeJ-6" target="7ib3BzU_In25O04w2GeJ-10">
          <mxGeometry relative="1" as="geometry" />
        </mxCell>
        <mxCell id="7ib3BzU_In25O04w2GeJ-25" style="edgeStyle=orthogonalEdgeStyle;rounded=0;orthogonalLoop=1;jettySize=auto;html=1;exitX=0;exitY=0.5;exitDx=0;exitDy=0;exitPerimeter=0;entryX=0.5;entryY=0;entryDx=0;entryDy=0;entryPerimeter=0;" edge="1" parent="7ib3BzU_In25O04w2GeJ-33" source="7ib3BzU_In25O04w2GeJ-2" target="7ib3BzU_In25O04w2GeJ-10">
          <mxGeometry relative="1" as="geometry">
            <Array as="points">
              <mxPoint y="125" />
              <mxPoint y="790" />
              <mxPoint x="121" y="790" />
            </Array>
          </mxGeometry>
        </mxCell>
        <mxCell id="7ib3BzU_In25O04w2GeJ-26" style="edgeStyle=orthogonalEdgeStyle;rounded=0;orthogonalLoop=1;jettySize=auto;html=1;exitX=0;exitY=0.5;exitDx=0;exitDy=0;exitPerimeter=0;entryX=0.5;entryY=0;entryDx=0;entryDy=0;entryPerimeter=0;" edge="1" parent="7ib3BzU_In25O04w2GeJ-33" source="7ib3BzU_In25O04w2GeJ-4" target="7ib3BzU_In25O04w2GeJ-10">
          <mxGeometry relative="1" as="geometry">
            <Array as="points">
              <mxPoint y="305" />
              <mxPoint y="790" />
              <mxPoint x="121" y="790" />
            </Array>
          </mxGeometry>
        </mxCell>
        <mxCell id="7ib3BzU_In25O04w2GeJ-27" style="edgeStyle=orthogonalEdgeStyle;rounded=0;orthogonalLoop=1;jettySize=auto;html=1;exitX=0;exitY=0.5;exitDx=0;exitDy=0;exitPerimeter=0;entryX=0.5;entryY=0;entryDx=0;entryDy=0;entryPerimeter=0;" edge="1" parent="7ib3BzU_In25O04w2GeJ-33" source="7ib3BzU_In25O04w2GeJ-7" target="7ib3BzU_In25O04w2GeJ-10">
          <mxGeometry relative="1" as="geometry">
            <Array as="points">
              <mxPoint y="405" />
              <mxPoint y="790" />
              <mxPoint x="121" y="790" />
            </Array>
          </mxGeometry>
        </mxCell>
        <mxCell id="7ib3BzU_In25O04w2GeJ-28" style="edgeStyle=orthogonalEdgeStyle;rounded=0;orthogonalLoop=1;jettySize=auto;html=1;exitX=0;exitY=0.5;exitDx=0;exitDy=0;exitPerimeter=0;entryX=0.5;entryY=0;entryDx=0;entryDy=0;entryPerimeter=0;" edge="1" parent="7ib3BzU_In25O04w2GeJ-33" source="7ib3BzU_In25O04w2GeJ-8" target="7ib3BzU_In25O04w2GeJ-10">
          <mxGeometry relative="1" as="geometry">
            <Array as="points">
              <mxPoint y="505" />
              <mxPoint y="790" />
              <mxPoint x="121" y="790" />
            </Array>
          </mxGeometry>
        </mxCell>
        <mxCell id="7ib3BzU_In25O04w2GeJ-29" style="edgeStyle=orthogonalEdgeStyle;rounded=0;orthogonalLoop=1;jettySize=auto;html=1;exitX=0;exitY=0.5;exitDx=0;exitDy=0;exitPerimeter=0;entryX=0.5;entryY=0;entryDx=0;entryDy=0;entryPerimeter=0;" edge="1" parent="7ib3BzU_In25O04w2GeJ-33" source="7ib3BzU_In25O04w2GeJ-9" target="7ib3BzU_In25O04w2GeJ-10">
          <mxGeometry relative="1" as="geometry">
            <Array as="points">
              <mxPoint y="605" />
              <mxPoint y="790" />
              <mxPoint x="121" y="790" />
            </Array>
          </mxGeometry>
        </mxCell>
        <mxCell id="7ib3BzU_In25O04w2GeJ-30" value="fail" style="edgeLabel;html=1;align=center;verticalAlign=middle;resizable=0;points=[];" vertex="1" connectable="0" parent="7ib3BzU_In25O04w2GeJ-29">
          <mxGeometry x="-0.4827" relative="1" as="geometry">
            <mxPoint y="-1" as="offset" />
          </mxGeometry>
        </mxCell>
        <mxCell id="7ib3BzU_In25O04w2GeJ-31" value="依据 src meta 对此次 copy 请求做校验" style="text;html=1;align=center;verticalAlign=middle;resizable=0;points=[];autosize=1;strokeColor=#666666;fillColor=#f5f5f5;fontSize=14;fontColor=#333333;" vertex="1" parent="7ib3BzU_In25O04w2GeJ-33">
          <mxGeometry x="240" y="290" width="260" height="30" as="geometry" />
        </mxCell>
        <mxCell id="7ib3BzU_In25O04w2GeJ-32" value="range get src obj（length=0）&lt;div&gt;不读取数据，只加一些特殊的 header&lt;/div&gt;&lt;div&gt;代表内部 get meta 的请求&lt;/div&gt;" style="text;html=1;align=center;verticalAlign=middle;resizable=0;points=[];autosize=1;strokeColor=#666666;fillColor=#f5f5f5;fontSize=14;fontColor=#333333;" vertex="1" parent="7ib3BzU_In25O04w2GeJ-33">
          <mxGeometry x="240" y="185" width="250" height="60" as="geometry" />
        </mxCell>
      </root>
    </mxGraphModel>
  </diagram>
</mxfile>
